<svg version="1.1" id="Layer_1" xmlns="http://www.w3.org/2000/svg" xmlns:xlink="http://www.w3.org/1999/xlink" x="0px" y="0px"
	 width="100%" viewBox="0 0 512 512" enable-background="new 0 0 512 512" xml:space="preserve">
<path fill="#000000" opacity="1.000000" stroke="none" 
	d="
M122.231300,215.100204 
	C101.960022,279.692200 132.689285,351.855652 192.230804,382.324677 
	C250.281967,412.030975 326.067780,398.850739 368.568909,343.587891 
	C384.662628,322.661713 394.481598,299.120026 396.851013,272.666107 
	C397.192230,268.856476 397.757935,265.042603 397.744598,261.232330 
	C397.730835,257.303223 399.701630,256.628693 403.072632,256.564728 
	C406.935791,256.491425 407.399933,258.505920 407.270233,261.591736 
	C405.848114,295.432587 395.206055,325.911530 373.602448,352.162384 
	C350.277802,380.504456 320.488708,398.391632 284.270386,404.721558 
	C242.427917,412.034454 203.737564,403.781738 169.186386,378.761322 
	C134.504211,353.645996 113.811798,319.512329 108.273537,277.158691 
	C102.065514,229.683105 115.389847,187.752502 148.484863,152.797913 
	C172.477875,127.456726 202.180817,112.335060 236.766983,108.101501 
	C281.535553,102.621544 321.536102,114.383881 355.930054,144.008209 
	C366.476013,153.091705 375.321075,163.643524 383.082550,175.189026 
	C385.135071,178.242279 385.126892,179.850342 382.002411,181.984116 
	C378.790649,184.177505 377.207886,183.310349 375.266205,180.361557 
	C356.825745,152.355743 331.717255,132.932297 299.765167,122.646561 
	C244.853928,104.970032 183.315552,123.151230 147.314178,167.790009 
	C136.032455,181.778427 127.597427,197.442398 122.231300,215.100204 
z"/>
<path fill="#000000" opacity="1.000000" stroke="none" 
	d="
M174.750717,331.159760 
	C163.802628,315.499756 164.316681,298.682373 168.317017,281.485779 
	C169.294968,277.281769 170.760757,273.180939 172.175751,269.092743 
	C172.986313,266.750854 173.749634,264.053986 177.386139,265.732147 
	C180.258926,267.057892 182.702667,267.976532 180.988922,272.250427 
	C177.062271,282.043091 175.009003,292.208832 175.207413,302.920227 
	C175.616013,324.979309 189.149277,338.506622 211.309555,338.800323 
	C223.187988,338.957703 234.288940,336.256989 246.089340,330.984406 
	C220.357468,314.414307 199.376144,294.212585 183.874451,268.716553 
	C189.961487,262.650513 190.904663,262.684357 195.212830,269.254883 
	C209.619827,291.227509 228.372681,308.637482 250.526855,322.612335 
	C255.242630,325.587067 258.984039,325.438812 263.688385,322.505981 
	C287.585907,307.607391 306.863708,288.215607 322.026337,264.523651 
	C325.398285,259.254913 325.680878,255.153610 322.201080,249.677200 
	C307.943726,227.239456 289.987488,208.561035 267.655640,194.151291 
	C264.588440,192.172165 263.460205,190.616287 265.704041,187.058014 
	C267.971893,183.461594 269.840912,184.451218 272.540009,186.211502 
	C294.334198,200.425095 312.336090,218.435165 326.837219,240.003006 
	C328.020752,241.763321 328.885162,243.819061 331.205017,245.287735 
	C335.471039,236.811142 337.907867,227.929962 338.587799,218.659088 
	C339.097198,211.713348 339.210327,204.713425 336.798340,197.922058 
	C332.040039,184.524246 320.450317,175.998199 306.295441,175.275131 
	C294.607758,174.678070 283.363861,176.547272 272.585724,180.886185 
	C268.685913,182.456146 267.310516,181.073990 265.914032,177.730804 
	C264.313782,173.899841 266.658997,173.113098 269.331543,172.144379 
	C282.625977,167.325623 296.096100,164.314240 310.414032,166.545914 
	C333.200226,170.097504 347.796844,186.667709 348.302002,209.729095 
	C348.622650,224.369766 345.013214,238.099136 339.058014,251.281998 
	C337.280518,255.216766 337.188507,258.536316 339.026154,262.608582 
	C344.892761,275.608887 348.515686,289.180542 348.308899,303.650360 
	C347.941742,329.340607 329.392090,347.935760 303.647247,348.284729 
	C288.845917,348.485321 274.975433,344.661835 261.656311,338.646790 
	C258.446838,337.197357 255.765091,337.113403 252.650665,338.503296 
	C239.149368,344.528625 225.182709,348.697754 210.202606,348.268005 
	C196.005020,347.860718 183.895752,342.951904 174.750717,331.159760 
M333.416321,273.199921 
	C332.630554,271.797333 332.569122,269.966461 330.381317,268.632935 
	C314.521851,293.966034 293.730743,314.538422 268.259033,330.601471 
	C269.272064,331.521301 269.575317,331.975281 269.995270,332.151978 
	C282.306091,337.331940 295.134552,339.983917 308.449707,338.501434 
	C324.220551,336.745483 334.988983,326.796082 337.996857,311.081726 
	C340.431122,298.364288 338.063995,285.955536 333.416321,273.199921 
z"/>
<path fill="#000000" opacity="1.000000" stroke="none" 
	d="
M457.911652,265.876648 
	C448.769653,265.745178 440.112885,265.484009 431.458649,265.551544 
	C428.244019,265.576630 427.360321,264.320526 427.582703,261.383881 
	C427.775604,258.836639 427.417450,256.561066 431.344513,256.460846 
	C446.994476,256.061493 462.632812,255.951630 478.284576,256.430542 
	C482.040497,256.545502 482.196442,258.514862 482.187866,261.241699 
	C482.152740,272.401489 482.250153,283.562378 482.117889,294.720734 
	C482.078430,298.049622 482.910187,300.066986 486.225006,301.698792 
	C495.391235,306.211151 499.549438,316.247162 496.750244,325.667725 
	C493.986908,334.967712 484.790894,341.237305 475.414795,340.213745 
	C465.326263,339.112427 457.859802,331.345520 456.936768,320.992126 
	C456.284149,313.672058 460.680786,305.282837 467.706848,302.162476 
	C471.789612,300.349365 472.925293,297.944946 472.761963,293.763947 
	C472.463104,286.113495 472.484833,278.436584 472.749481,270.783722 
	C472.892151,266.658081 470.970367,265.468048 467.381683,265.592407 
	C464.387360,265.696136 461.392517,265.783081 457.911652,265.876648 
M485.718842,312.919312 
	C481.311066,308.891724 475.786865,307.925293 471.659729,310.459717 
	C467.373291,313.091827 465.327637,318.342224 466.775757,322.994537 
	C468.789948,329.465332 475.277985,332.407257 481.534088,329.896179 
	C486.745667,327.804260 490.486603,320.980652 485.718842,312.919312 
z"/>
<path fill="#000000" opacity="1.000000" stroke="none" 
	d="
M86.521530,253.024857 
	C86.990852,256.349670 85.882492,257.524689 82.714180,257.497009 
	C67.396187,257.363098 52.075802,257.341858 36.757904,257.472809 
	C32.998646,257.504944 31.800358,255.962265 31.832233,252.427582 
	C31.932829,241.272232 31.803480,230.114868 31.896120,218.959381 
	C31.921488,215.904953 31.407444,213.946503 28.129522,212.396042 
	C18.958712,208.058334 14.501964,197.706955 17.223122,188.572052 
	C19.943235,179.440659 28.901272,173.047974 37.957783,173.775299 
	C48.381382,174.612411 55.964771,182.231781 57.036339,192.944366 
	C57.776031,200.339142 53.102234,208.626129 45.392628,212.320511 
	C42.110176,213.893463 41.178696,215.824875 41.258335,219.212692 
	C41.453945,227.533722 41.403053,235.863541 41.282978,244.187393 
	C41.240253,247.149048 42.140625,248.239288 45.298988,248.203934 
	C57.611515,248.066055 69.927818,248.294876 82.241493,248.210358 
	C85.564575,248.187561 86.842407,249.513290 86.521530,253.024857 
M44.387566,186.081451 
	C38.792496,182.314346 33.603870,182.231232 29.270048,185.839279 
	C25.945990,188.606659 24.795732,194.275833 26.662027,198.693176 
	C28.496553,203.035324 33.268711,205.299026 38.671902,204.823166 
	C45.484306,204.223206 51.474117,194.312256 44.387566,186.081451 
z"/>
<path fill="#000000" opacity="1.000000" stroke="none" 
	d="
M414.570496,439.936707 
	C412.234680,428.377472 416.032928,420.342590 426.212708,415.364807 
	C428.668182,414.164124 429.661560,412.738525 429.632233,410.042542 
	C429.525482,400.227142 429.519409,390.408813 429.646301,380.593811 
	C429.682556,377.789093 428.395325,375.914062 426.570831,374.093567 
	C418.916199,366.455597 411.338379,358.740265 403.646393,351.140320 
	C401.465881,348.985901 400.262939,347.343170 403.248260,344.682648 
	C405.782654,342.424011 407.385223,341.633240 410.148834,344.493683 
	C418.700684,353.345245 427.489258,361.970886 436.298218,370.569244 
	C438.405273,372.625916 439.072968,374.890045 439.048279,377.708191 
	C438.960754,387.690277 439.213257,397.679749 438.911926,407.653534 
	C438.781158,411.982025 440.010406,414.443573 444.002594,416.616547 
	C453.900635,422.004089 457.177490,433.638916 452.125427,443.203064 
	C446.758606,453.363190 435.207306,457.161530 424.837189,452.158905 
	C419.737488,449.698792 416.761292,445.398468 414.570496,439.936707 
M437.506775,444.379974 
	C443.854523,441.026978 446.079163,436.750122 444.598633,430.746002 
	C443.562775,426.545135 438.775482,423.070557 434.098389,423.124908 
	C427.598083,423.200470 422.832123,428.200623 423.106903,434.656464 
	C423.396790,441.467072 428.548798,445.219727 437.506775,444.379974 
z"/>
<path fill="#000000" opacity="1.000000" stroke="none" 
	d="
M75.068588,103.064087 
	C75.546463,99.369804 72.773170,99.108833 70.791634,98.103378 
	C60.307838,92.783806 56.535809,79.551003 62.624378,69.452385 
	C68.823479,59.170444 82.440338,56.545425 92.180649,63.754616 
	C101.586342,70.716141 103.070641,84.591187 95.258682,93.369904 
	C93.951874,94.838432 92.422615,96.558365 90.668869,97.097466 
	C84.886375,98.875015 84.033279,102.841225 84.280045,108.170464 
	C84.656799,116.306854 84.500229,124.474457 84.355194,132.624985 
	C84.303642,135.522141 85.193413,137.654892 87.245438,139.679169 
	C94.467857,146.803925 101.533508,154.087265 108.693665,161.275558 
	C114.097565,166.700699 114.047577,167.240082 107.253616,171.790207 
	C104.891289,171.121414 103.591385,169.056961 101.970177,167.453537 
	C94.400200,159.966644 87.027588,152.274506 79.304848,144.950531 
	C76.120911,141.931000 74.878334,138.726105 74.976273,134.404022 
	C75.209923,124.092911 75.052948,113.772942 75.068588,103.064087 
M84.964600,89.775093 
	C86.006241,88.961143 87.182449,88.271278 88.066780,87.312271 
	C92.454758,82.553757 92.091637,75.980576 87.294624,71.841904 
	C82.525276,67.727097 75.767685,68.174728 71.685310,72.875870 
	C68.782295,76.218903 68.220558,81.725365 70.401138,85.464188 
	C73.189087,90.244446 77.729866,91.768410 84.964600,89.775093 
z"/>
<path fill="#000000" opacity="1.000000" stroke="none" 
	d="
M350.316437,406.727600 
	C357.747162,414.151947 364.850647,421.414062 372.168304,428.453552 
	C374.911865,431.092834 376.150970,433.850647 375.839478,437.713165 
	C375.493317,442.006104 375.975830,446.359833 375.787506,450.673553 
	C375.657501,453.651428 377.782959,454.121887 379.698853,455.062866 
	C388.222504,459.249176 392.644684,467.661285 391.173096,476.809418 
	C389.841278,485.088776 382.793213,491.965240 374.075226,493.491180 
	C365.553833,494.982697 355.815765,489.619781 352.524994,481.623016 
	C348.783997,472.532196 350.787384,462.027222 358.736847,457.700775 
	C365.794128,453.859924 367.403381,448.968384 366.815338,441.702057 
	C366.496552,437.763000 365.529785,434.762756 362.710815,432.043671 
	C356.240845,425.802948 349.946198,419.380432 343.579834,413.032257 
	C341.133484,410.592926 338.053650,408.744965 342.202667,404.667969 
	C346.467255,400.477448 347.746674,404.732971 350.316437,406.727600 
M363.913635,481.587372 
	C364.885498,482.216492 365.796295,482.980865 366.839478,483.452118 
	C372.401123,485.964508 378.914612,483.206665 381.152771,477.455231 
	C383.516907,471.380066 380.562805,464.874420 374.546844,462.907440 
	C368.509796,460.933563 361.829498,464.477264 360.509521,470.515778 
	C359.647522,474.459167 360.357666,478.119507 363.913635,481.587372 
z"/>
<path fill="#000000" opacity="1.000000" stroke="none" 
	d="
M172.336624,102.818161 
	C176.158951,106.658966 172.394714,108.275887 170.545898,110.229485 
	C168.204453,112.703651 166.774796,110.398201 165.283600,108.904747 
	C157.525131,101.134499 149.861176,93.266670 141.967850,85.636047 
	C139.240036,82.999016 137.760788,80.199768 138.083527,76.411446 
	C138.224274,74.759430 138.003571,73.077553 138.129791,71.423187 
	C138.608673,65.146698 138.358414,60.157825 131.035492,56.701614 
	C123.330811,53.065228 120.885544,42.326611 123.765877,33.830170 
	C126.407333,26.038368 135.306290,19.769629 143.340103,20.041376 
	C152.402069,20.347902 160.204437,26.838612 162.681778,36.131516 
	C164.846497,44.251637 161.169327,52.938740 153.895859,57.749035 
	C151.476349,59.349163 147.073013,59.314770 147.443130,63.671921 
	C147.979034,69.980881 145.114349,76.749718 151.478607,82.237686 
	C158.767273,88.522758 165.247818,95.745003 172.336624,102.818161 
M145.540619,29.987780 
	C140.530472,28.585323 136.578491,30.524963 133.829346,34.468109 
	C131.263611,38.148178 131.421097,42.411999 133.556168,46.317390 
	C135.780411,50.385929 139.564453,51.954899 144.075836,51.625546 
	C148.660522,51.290836 152.982819,47.212700 153.686096,42.790939 
	C154.588776,37.115620 152.204407,33.085945 145.540619,29.987780 
z"/>
<path fill="#000000" opacity="1.000000" stroke="none" 
	d="
M166.894180,417.892914 
	C158.175964,426.618134 149.759796,435.145935 141.204041,443.531311 
	C139.062714,445.630005 138.257767,447.378326 139.547531,450.457428 
	C143.049301,458.817352 140.641876,466.249390 134.449280,472.304077 
	C128.605515,478.017731 121.436089,479.521515 113.682594,476.604187 
	C105.133141,473.387360 100.747673,466.729065 100.119476,457.932800 
	C99.176392,444.727295 113.832413,433.761688 126.492752,438.276459 
	C130.714188,439.781891 133.113602,438.869141 135.998169,435.877716 
	C145.927841,425.580109 156.163452,415.578125 166.160217,405.344086 
	C168.478226,402.971069 170.123230,402.495148 172.667694,405.122894 
	C175.101715,407.636597 175.838165,409.526428 172.816589,412.025665 
	C170.774368,413.714813 169.024963,415.757996 166.894180,417.892914 
M121.256432,468.565277 
	C123.126732,468.442596 124.785858,467.711639 126.341583,466.735229 
	C131.910629,463.239929 133.326080,456.420593 129.577179,451.232880 
	C125.651535,445.800598 118.515793,444.853668 113.512299,449.270874 
	C110.360031,452.053772 108.523163,455.615204 109.716682,459.890686 
	C111.205162,465.222778 114.900597,468.169037 121.256432,468.565277 
z"/>
<path fill="#000000" opacity="1.000000" stroke="none" 
	d="
M405.252106,39.592331 
	C414.209167,46.136860 416.814148,56.254025 412.156769,65.385307 
	C407.333771,74.841476 397.249084,79.197395 387.359161,75.490341 
	C383.653198,74.101219 381.611115,75.083656 379.140747,77.605392 
	C368.996094,87.960999 358.598907,98.069809 348.492523,108.461876 
	C345.716949,111.315895 343.912231,111.159767 341.199615,108.444847 
	C338.412476,105.655350 339.667969,104.176254 341.884003,101.992142 
	C352.441925,91.586388 362.812012,80.990303 373.331207,70.544785 
	C375.455719,68.435165 376.160187,66.481178 375.107788,63.458138 
	C372.198242,55.100269 374.520721,45.979649 380.416260,41.083759 
	C388.002747,34.783634 395.868713,34.242325 405.252106,39.592331 
M400.550446,65.105415 
	C406.935608,60.698994 405.918396,50.446606 399.622284,46.960018 
	C394.862305,44.324127 389.170685,45.186691 385.604065,49.268707 
	C382.350159,52.992798 382.233978,59.074375 385.340118,63.081688 
	C388.868958,67.634293 393.966248,68.490234 400.550446,65.105415 
z"/>
<path fill="#000000" opacity="1.000000" stroke="none" 
	d="
M426.785889,101.123924 
	C430.529358,92.443909 436.928162,87.857964 445.920532,87.875885 
	C454.220764,87.892426 460.595337,91.927620 464.220184,99.535179 
	C467.868225,107.191444 466.619781,114.435577 461.501190,121.050240 
	C456.439301,127.591599 447.281982,130.513901 439.586792,127.393875 
	C435.786560,125.853081 433.672211,126.720070 431.044983,129.439011 
	C421.803040,139.003555 412.263428,148.279816 402.957306,157.783493 
	C400.610626,160.179993 398.960449,161.103394 396.058319,158.255829 
	C393.076752,155.330276 393.672821,153.586441 396.339661,150.987869 
	C405.866638,141.704773 415.151123,132.173218 424.635895,122.846062 
	C427.124481,120.398796 428.404938,118.270111 426.631958,114.609978 
	C424.607635,110.431007 425.043701,105.865662 426.785889,101.123924 
M456.651703,109.990822 
	C456.582794,108.503510 456.793732,106.935898 456.394135,105.543495 
	C455.028503,100.784904 451.911743,97.796463 446.857239,97.313927 
	C442.092926,96.859085 438.416931,98.719727 436.139130,103.023567 
	C433.764496,107.510437 434.344177,111.736313 437.638855,115.488472 
	C443.551758,122.222351 452.658539,119.906372 456.651703,109.990822 
z"/>
<path fill="#000000" opacity="1.000000" stroke="none" 
	d="
M60.393059,423.936768 
	C50.024792,418.161011 45.838524,409.403198 48.591370,399.803436 
	C51.243599,390.554596 60.267578,384.184662 69.747391,384.883667 
	C70.575661,384.944794 71.542099,384.851166 72.199532,385.241638 
	C78.111031,388.752472 81.737236,385.571228 85.661407,381.384338 
	C93.404556,373.122711 101.557083,365.243256 109.595596,357.261414 
	C111.098236,355.769379 112.364517,353.909546 114.523643,353.251099 
	C121.286728,357.891235 121.387947,358.529541 116.072975,363.851166 
	C107.006935,372.928619 97.938393,382.003723 88.833206,391.041840 
	C86.948891,392.912231 85.676376,394.624023 86.945557,397.578522 
	C90.413521,405.651367 88.671982,412.927368 82.712502,419.170471 
	C76.535645,425.641357 69.090294,427.030304 60.393059,423.936768 
M73.645454,395.635803 
	C67.992462,393.335175 63.382641,394.108032 60.002670,397.923187 
	C56.827797,401.506744 56.281170,407.034027 58.717026,410.922333 
	C61.186802,414.864807 66.059067,416.859100 70.917023,415.704498 
	C75.146713,414.699219 77.887100,412.047272 78.971382,407.754822 
	C80.248810,402.697693 77.933884,399.115784 73.645454,395.635803 
z"/>
<path fill="#000000" opacity="1.000000" stroke="none" 
	d="
M276.823242,261.733765 
	C279.223969,249.855545 273.193726,240.327621 261.661957,237.040588 
	C259.795776,236.508636 257.250397,237.001053 256.695007,233.881210 
	C255.699188,228.287338 257.248444,226.701218 263.117676,227.791550 
	C276.740234,230.322235 287.884766,244.675705 286.830902,258.332703 
	C285.593414,274.369629 273.206940,286.443695 257.505127,286.918793 
	C243.291245,287.348877 229.641403,275.860931 227.629745,261.787262 
	C226.388168,253.101120 228.347214,245.215118 233.847458,238.382004 
	C235.156906,236.755234 236.362152,233.161530 239.566895,236.068466 
	C241.989609,238.266037 244.441025,240.092102 241.088150,244.182358 
	C234.276016,252.492630 235.395111,264.827454 242.803009,271.919983 
	C250.006821,278.817108 262.450592,279.120453 270.283295,272.556396 
	C273.573273,269.799286 275.724823,266.304626 276.823242,261.733765 
z"/>
<path fill="#000000" opacity="1.000000" stroke="none" 
	d="
M218.661316,175.338760 
	C207.929749,174.838776 197.875885,175.241257 189.040344,181.564133 
	C180.441452,187.717651 176.265793,196.347473 175.399139,206.567413 
	C174.386917,218.504257 176.182678,230.160141 180.737228,241.252167 
	C182.279709,245.008713 181.102463,246.577789 177.741730,248.028442 
	C173.949707,249.665253 173.049423,247.313812 172.100037,244.663986 
	C167.283600,231.220810 164.056412,217.600800 166.558670,203.141037 
	C170.421890,180.816711 186.202377,166.829666 209.242508,165.825104 
	C221.729111,165.280685 233.708160,167.901932 245.332199,172.371216 
	C248.096497,173.434036 249.489731,174.588638 247.923752,177.878754 
	C246.549728,180.765533 245.600891,182.742508 241.773743,181.069672 
	C234.575302,177.923325 226.936630,176.225525 218.661316,175.338760 
z"/>
<path fill="#000000" opacity="1.000000" stroke="none" 
	d="
M252.813065,85.233673 
	C251.487045,77.239510 252.171234,69.575134 252.133224,61.933517 
	C252.115387,58.347839 250.997391,56.222672 247.669312,54.533161 
	C239.049393,50.157249 234.926819,40.826893 237.177017,31.905991 
	C239.454819,22.875582 247.120071,16.779688 256.376251,16.637590 
	C266.420532,16.483393 273.933380,22.044439 276.757202,31.723579 
	C279.177155,40.018398 275.304443,50.036118 266.977753,54.226490 
	C262.580963,56.439159 261.503571,59.014820 261.839661,63.463726 
	C262.227600,68.599419 261.969940,73.784660 261.974030,78.948395 
	C261.980103,86.674683 260.881409,87.490387 252.813065,85.233673 
M263.124237,45.743359 
	C268.012482,41.394478 269.246613,36.606724 266.756165,31.653931 
	C264.675323,27.515831 259.538055,24.978558 255.106842,25.928818 
	C250.903519,26.830210 247.698914,29.078382 246.530029,33.330338 
	C245.292358,37.832447 246.205811,42.052734 249.958389,45.058914 
	C253.769119,48.111706 258.043518,48.764687 263.124237,45.743359 
z"/>
<path fill="#000000" opacity="1.000000" stroke="none" 
	d="
M271.253082,462.735046 
	C283.604736,476.365845 275.081879,493.405945 262.736145,496.745178 
	C252.641708,499.475494 242.618027,494.890839 238.396072,485.276489 
	C234.257767,475.852661 237.699112,464.767334 246.873337,459.931244 
	C250.851532,457.834198 252.374374,455.390625 252.149643,451.000244 
	C251.835510,444.862488 252.081390,438.695526 252.108612,432.541168 
	C252.121704,429.581421 252.750458,427.456970 256.573578,427.494171 
	C260.380646,427.531250 262.029938,428.884674 261.938507,432.753754 
	C261.801056,438.571899 262.171539,444.408722 261.871582,450.214172 
	C261.634064,454.810303 262.305237,458.380890 267.361145,459.898407 
	C268.708679,460.302856 269.790466,461.592590 271.253082,462.735046 
M265.670105,484.030518 
	C268.914673,478.718933 268.716034,473.765778 265.101379,469.848541 
	C261.639282,466.096619 256.448944,465.225006 251.876389,467.627686 
	C247.349136,470.006531 245.225494,474.648895 246.302505,479.812500 
	C248.067932,488.276703 257.414886,490.644989 265.670105,484.030518 
z"/>
<path fill="#000000" opacity="1.000000" stroke="none" 
	d="
M203.807388,232.796143 
	C200.123520,237.952240 196.473389,242.709991 193.255341,247.743988 
	C191.135361,251.060242 189.230103,249.463760 187.056870,248.193054 
	C184.795319,246.870712 183.535477,245.634399 185.401703,242.716278 
	C200.240143,219.514206 219.236572,200.532120 242.393539,185.639130 
	C245.278244,183.783905 246.701767,184.503677 248.322998,187.141418 
	C249.981873,189.840378 250.281113,191.550522 247.127945,193.576279 
	C230.634399,204.172470 216.176575,217.082870 203.807388,232.796143 
z"/>
<path fill="#000000" opacity="1.000000" stroke="none" 
	d="
M391.744904,206.786026 
	C396.377838,204.041534 398.571289,205.393234 399.839142,210.117294 
	C401.171570,215.082169 402.718811,219.983109 403.808868,225.022415 
	C404.360931,227.574661 403.025726,228.393677 401.078827,228.790421 
	C398.896942,229.235001 396.038177,230.526382 395.029755,227.487122 
	C393.047302,221.512161 391.569427,215.367874 389.954346,209.274673 
	C389.661896,208.171387 390.420319,207.414612 391.744904,206.786026 
z"/>
</svg>